# Blender v2.78 (sub 0) OBJ File: ''
# www.blender.org
o Cube
v 1.000000 0.144653 -1.000000
v 1.000000 0.144653 1.000000
v -1.000000 0.144653 1.000000
v -1.000000 0.144653 -1.000000
v 0.289516 2.606323 0.467775
v -0.720563 3.022584 1.066471
v -1.000000 3.209452 1.000000
v -0.409353 2.998490 -0.032203
v 1.000000 0.144653 -1.000000
v 1.000000 0.144653 -1.000000
v 1.000000 0.144653 1.000000
v 1.000000 0.144653 1.000000
v -1.000000 0.144653 -1.000000
v -1.000000 0.144653 -1.000000
v 0.289516 2.606323 0.467775
v 0.289516 2.606323 0.467775
v -1.000000 0.144653 1.000000
v -1.000000 0.144653 1.000000
v -0.720563 3.022584 1.066471
v -0.720563 3.022584 1.066471
v -1.000000 3.209452 1.000000
v -1.000000 3.209452 1.000000
v -0.409353 2.998490 -0.032203
v -0.409353 2.998490 -0.032203
vt 1.0000 0.5099
vt 0.6612 0.8399
vt 0.6612 0.5099
vt 0.0000 0.7643
vt 0.0708 0.5891
vt 0.1162 0.7643
vt 0.1949 0.1311
vt 0.3225 0.5445
vt 0.0000 0.5688
vt 0.6135 0.0306
vt 0.6612 0.5055
vt 0.3225 0.5057
vt 0.9932 0.0085
vt 0.8018 0.4833
vt 0.6612 0.0000
vt 0.5466 0.5297
vt 0.3225 1.0000
vt 0.4078 0.5057
vt 1.0000 0.8399
vt 0.0300 0.5688
vt 0.3225 0.0000
vt 0.6612 0.0000
vt 0.9932 0.5099
vt 0.6528 1.0000
vn 0.0000 -1.0000 0.0000
vn 0.4490 0.8870 0.1077
vn 0.4970 0.8591 0.1219
vn 0.4302 0.8969 0.1022
vn 0.7311 0.3390 0.5920
vn 0.9390 0.3052 0.1583
vn 0.9608 0.2773 0.0000
vn -0.1775 -0.0055 0.9841
vn -0.0146 -0.0216 0.9996
vn 0.0000 -0.0231 0.9997
vn -0.9796 0.1578 -0.1241
vn -0.9360 0.0689 -0.3451
vn -0.9792 0.2026 0.0000
vn 0.4452 0.2748 -0.8522
vn 0.1372 0.4533 -0.8807
vn 0.6246 0.1317 -0.7697
vn 0.5292 0.8382 0.1315
vn 0.5781 0.3283 0.7470
vn -0.2314 0.0000 0.9728
vn -0.8679 0.0000 -0.4966
vn 0.0000 0.5121 -0.8589
s 1
f 11/1/1 13/2/1 9/3/1
f 24/4/2 20/5/3 16/6/4
f 15/7/5 12/8/6 10/9/7
f 6/10/8 18/11/9 2/12/10
f 3/13/11 23/14/12 14/15/13
f 5/16/14 4/17/15 8/18/16
f 11/1/1 17/19/1 13/2/1
f 24/4/2 22/20/17 20/5/3
f 15/7/5 19/21/18 12/8/6
f 6/10/8 21/22/19 18/11/9
f 3/13/11 7/23/20 23/14/12
f 5/16/14 1/24/21 4/17/15
